<?xml version="1.0" encoding="UTF-8"?>
<svg width="135px" height="40px" viewBox="0 0 135 40" version="1.1" xmlns="http://www.w3.org/2000/svg" xmlns:xlink="http://www.w3.org/1999/xlink">
    <title>ag download</title>
    <g id="Web" stroke="none" stroke-width="1" fill="none" fill-rule="evenodd" opacity="0.496837798">
        <g id="Homepage-NEW" transform="translate(-520.000000, -1058.000000)">
            <g id="uBank" transform="translate(165.000000, 920.317073)">
                <g id="Unibank-Mobile" transform="translate(65.000000, 84.682927)">
                    <g id="ag-download" transform="translate(290.000000, 53.000000)">
                        <g id="Group" fill="#000000" fill-rule="nonzero">
                            <path d="M130,0.8 C131.11375,0.8 132.1825,1.2425 132.97,2.03015 C133.7575,2.81780625 134.2,3.88609375 134.2,5 L134.2,35 C134.2,36.1139375 133.7575,37.1821875 132.97,37.969875 C132.1825,38.7575 131.11375,39.2 130,39.2 L5,39.2 C3.88609375,39.2 2.81780625,38.7575 2.03015,37.969875 C1.2425,37.1821875 0.8,36.1139375 0.8,35 L0.8,5 C0.8,3.88609375 1.2425,2.81780625 2.03015,2.03015 C2.81780625,1.2425 3.88609375,0.8 5,0.8 L130,0.8 Z M130,0 L5,0 C3.67391875,0 2.40215,0.526784375 1.46446875,1.46446875 C0.526784375,2.40215 0,3.67391875 0,5 L0,35 C0,36.3260625 0.526784375,37.597875 1.46446875,38.5355625 C2.40215,39.4731875 3.67391875,40 5,40 L130,40 C131.32625,40 132.598125,39.4731875 133.535625,38.5355625 C134.473125,37.597875 135,36.3260625 135,35 L135,5 C135,3.67391875 134.473125,2.40215 133.535625,1.46446875 C132.598125,0.526784375 131.32625,0 130,0 Z" id="Shape"></path>
                        </g>
                        <g id="Group-2" transform="translate(10.000000, 9.375000)">
                            <path d="M37.6334026,15.7299968 L35.6229744,10.1086313 L33.6219116,15.7299968 L37.6334026,15.7299968 Z M30.625,19.9007915 L34.7925802,8.59990846 L36.462734,8.59990846 L40.6303142,19.9007915 L39.0912752,19.9007915 L38.0954265,16.99965 L33.1786184,16.99965 L32.1827697,19.9007915 L30.625,19.9007915 Z M43.4617713,18.6311383 L43.4617713,23.125 L42.1162828,23.125 L42.1162828,11.4235139 L43.4617713,11.4235139 L43.4617713,12.7028591 C43.7458535,12.1988747 44.1017368,11.8273476 44.5325428,11.5850474 C44.9695924,11.3362858 45.4846866,11.2135204 46.0809471,11.2135204 C47.0767959,11.2135204 47.8853376,11.6238154 48.5065724,12.4444056 C49.1340508,13.2585344 49.4462291,14.3343474 49.4462291,15.6718447 C49.4462291,17.0028807 49.1340508,18.0754631 48.5065724,18.8992839 C47.8853376,19.7134127 47.0767959,20.1204771 46.0809471,20.1204771 C45.4846866,20.1204771 44.9695924,20.0009423 44.5325428,19.758642 C44.1017368,19.5098805 43.7458535,19.1318921 43.4617713,18.6311383 Z M48.0445486,15.6718447 C48.0445486,14.6477224 47.8385109,13.8432856 47.4264355,13.2585344 C47.0268473,12.6737831 46.47117,12.3797922 45.7562817,12.3797922 C45.0445152,12.3797922 44.4794725,12.6737831 44.0673971,13.2585344 C43.6615654,13.8432856 43.4586495,14.6477224 43.4586495,15.6718447 C43.4586495,16.695967 43.6615654,17.5004038 44.0673971,18.0851551 C44.4794725,18.663445 45.0413934,18.9542053 45.7562817,18.9542053 C46.4680482,18.9542053 47.0268473,18.663445 47.4264355,18.0851551 C47.8385109,17.5004038 48.0445486,16.695967 48.0445486,15.6718447 Z M52.9800873,18.6311383 L52.9800873,23.125 L51.6252335,23.125 L51.6252335,11.4235139 L52.9800873,11.4235139 L52.9800873,12.7028591 C53.2641696,12.1988747 53.616931,11.8273476 54.0414935,11.5850474 C54.4785431,11.3362858 54.9967591,11.2135204 55.5992632,11.2135204 C56.5888683,11.2135204 57.3942883,11.6238154 58.0155231,12.4444056 C58.6430015,13.2585344 58.9551798,14.3343474 58.9551798,15.6718447 C58.9551798,17.0028807 58.6430015,18.0754631 58.0155231,18.8992839 C57.3942883,19.7134127 56.5888683,20.1204771 55.5992632,20.1204771 C54.9967591,20.1204771 54.4785431,20.0009423 54.0414935,19.758642 C53.616931,19.5098805 53.2610478,19.1318921 52.9800873,18.6311383 Z M57.5534993,15.6718447 C57.5534993,14.6477224 57.3474616,13.8432856 56.9353862,13.2585344 C56.535798,12.6737831 55.9801207,12.3797922 55.2652324,12.3797922 C54.5534659,12.3797922 53.9884232,12.6737831 53.5763478,13.2585344 C53.1767596,13.8432856 52.9769655,14.6477224 52.9769655,15.6718447 C52.9769655,16.695967 53.1767596,17.5004038 53.5763478,18.0851551 C53.9884232,18.663445 54.5503441,18.9542053 55.2652324,18.9542053 C55.9769989,18.9542053 56.535798,18.663445 56.9353862,18.0851551 C57.3474616,17.5004038 57.5534993,16.695967 57.5534993,15.6718447 Z M68.6389503,18.2886873 L68.6389503,15.2550883 L66.2320557,15.2550883 L66.2320557,13.9951271 L70.1061883,13.9951271 L70.1061883,18.8540545 C69.534902,19.2740416 68.9043019,19.5906472 68.2143878,19.8071021 C67.5307174,20.0170956 66.8002202,20.1204771 66.0197745,20.1204771 C64.3090374,20.1204771 62.9729144,19.6035699 62.0082834,18.5729862 C61.0498961,17.5424025 60.5691415,16.1047545 60.5691415,14.260042 C60.5691415,12.4153295 61.0498961,10.9776815 62.0082834,9.94709778 C62.9729144,8.91005277 64.3121592,8.38991493 66.0197745,8.38991493 C66.731541,8.38991493 67.4058461,8.48360435 68.039568,8.66775253 C68.6857771,8.84543937 69.2789158,9.11358497 69.8189843,9.46895865 L69.8189843,11.1004469 C69.2726722,10.6158464 68.6920206,10.2540114 68.0770294,10.0117112 C67.4620382,9.76941094 66.8158291,9.64987616 66.141524,9.64987616 C64.8085227,9.64987616 63.8033086,10.0343259 63.1258817,10.8032253 C62.460942,11.578586 62.130033,12.7319352 62.130033,14.2568113 C62.130033,15.7816875 62.460942,16.9318059 63.1258817,17.7007054 C63.8033086,18.4696048 64.8085227,18.8540545 66.141524,18.8540545 C66.6628617,18.8540545 67.1311292,18.8088251 67.5432045,18.721597 C67.9490363,18.6311383 68.3142849,18.4857581 68.6389503,18.2886873 Z M77.7607999,15.6330767 L76.4246769,15.6330767 C75.3351746,15.6330767 74.582825,15.7623035 74.164506,16.0239877 C73.7461871,16.2792106 73.5370277,16.7185817 73.5370277,17.342101 C73.5370277,17.8396242 73.6931168,18.2337659 74.0084169,18.5245262 C74.3205952,18.8120558 74.7482794,18.9542053 75.2914697,18.9542053 C76.0406976,18.9542053 76.6400799,18.6795983 77.0896166,18.1336151 C77.5391534,17.5876319 77.7639217,16.8575005 77.7639217,15.9464516 L77.7639217,15.6330767 L77.7607999,15.6330767 Z M79.1062884,15.0612481 L79.1062884,19.9007915 L77.7607999,19.9007915 L77.7607999,18.6117543 C77.4548652,19.1286614 77.0708859,19.5098805 76.6182274,19.758642 C76.1562035,20.0009423 75.5942826,20.1204771 74.9293429,20.1204771 C74.092705,20.1204771 73.4246435,19.8781768 72.92828,19.3935764 C72.4350383,18.9025145 72.1915393,18.2466886 72.1915393,17.4260984 C72.1915393,16.4795122 72.497474,15.7590728 73.1124652,15.268011 C73.7337,14.7834105 74.654626,14.5411103 75.8783649,14.5411103 L77.7607999,14.5411103 L77.7607999,14.4086528 C77.7607999,13.7657495 77.5578841,13.2682264 77.1520523,12.919314 C76.7462205,12.5704017 76.1749342,12.3959455 75.4381935,12.3959455 C74.969926,12.3959455 74.5172675,12.4540976 74.0739743,12.567171 C73.6306812,12.6802445 73.2029969,12.8579313 72.7909216,13.0905395 L72.7909216,11.8015023 C73.2841633,11.6044314 73.761796,11.4590513 74.2300635,11.3621312 C74.6920874,11.2587497 75.1385023,11.2102897 75.5755519,11.2102897 C76.7618294,11.2102897 77.6484158,11.5268953 78.2321892,12.1633373 C78.8159626,12.8062406 79.1062884,13.7689802 79.1062884,15.0612481 Z M81.8815534,19.9007915 L81.8815534,8.125 L83.2270418,8.125 L83.2270418,19.9007915 L81.8815534,19.9007915 Z M86.04289,19.9007915 L86.04289,8.125 L87.3883784,8.125 L87.3883784,19.9007915 L86.04289,19.9007915 Z M97.172046,15.3100097 L97.172046,15.9981424 L90.9846723,15.9981424 C91.0408644,16.95119 91.3155813,17.684552 91.8150665,18.1917672 C92.3176736,18.6892903 93.0169529,18.9348212 93.9097829,18.9348212 C94.424877,18.9348212 94.9243623,18.8702078 95.4051169,18.7442117 C95.8983586,18.6117543 96.3791131,18.4146834 96.8536241,18.1529991 L96.8536241,19.4711124 C96.3728696,19.681106 95.8796279,19.8426395 95.3676555,19.9589436 C94.8650484,20.0655557 94.3499542,20.1204771 93.8286165,20.1204771 C92.5237113,20.1204771 91.4904011,19.7263353 90.7193207,18.9380519 C89.9576057,18.1562298 89.5767482,17.0933394 89.5767482,15.7493808 C89.5767482,14.3569621 89.938875,13.2553037 90.6662504,12.4476362 C91.3905041,11.6270461 92.3707439,11.216751 93.5976046,11.216751 C94.6995939,11.216751 95.5674496,11.5850474 96.2074151,12.3248708 C96.8505023,13.0550022 97.172046,14.0500485 97.172046,15.3100097 Z M91.0221337,14.9094066 L95.8265576,14.9094066 C95.8140704,14.1469686 95.604911,13.536372 95.1990792,13.0776168 C94.799491,12.6253231 94.2687879,12.3991762 93.6038481,12.3991762 C92.8546202,12.3991762 92.2521161,12.6188617 91.7963358,13.0582328 C91.3467991,13.4976039 91.0908129,14.1146619 91.0221337,14.9094066 Z M104.071186,11.2910564 L104.080552,12.7222432 C103.927584,12.6317844 103.76213,12.567171 103.581066,12.5219416 C103.400003,12.4767123 103.209574,12.4540976 103.000415,12.4540976 C102.2387,12.4540976 101.651804,12.7125512 101.239729,13.2262277 C100.833897,13.7366735 100.630981,14.4700355 100.630981,15.4295445 L100.630981,19.8975608 L99.285493,19.8975608 L99.285493,11.4235139 L100.630981,11.4235139 L100.630981,12.7416272 C100.915064,12.22472 101.283434,11.843501 101.739214,11.5947394 C102.194995,11.3395165 102.744428,11.2135204 103.390638,11.2135204 C103.484291,11.2135204 103.58731,11.2232124 103.702816,11.2425964 C103.812078,11.2490577 103.93695,11.2652111 104.071186,11.2910564 Z M112.5,11.4235139 L108.903706,20.6826136 C108.522849,21.6938133 108.151356,22.3561006 107.78923,22.6662449 C107.427103,22.9731585 106.943226,23.125 106.340722,23.125 L105.260585,23.125 L105.260585,21.9619589 L106.053518,21.9619589 C106.421889,21.9619589 106.712215,21.8682694 106.921374,21.6841213 C107.12429,21.5064344 107.349058,21.0767553 107.595679,20.395084 L107.845422,19.7651034 L104.523845,11.4235139 L105.953621,11.4235139 L108.516605,18.046387 L111.070223,11.4235139 L112.5,11.4235139 L112.5,11.4235139 Z" id="AppGallery" fill="#010202" fill-rule="nonzero"></path>
                            <path d="M30.625,5.53151709 L30.625,0.710470085 L33.7887436,0.710470085 L33.7887436,1.25534188 L31.2966017,1.25534188 L31.2966017,2.68429487 L33.6832855,2.68429487 L33.6832855,3.23717949 L31.2966017,3.23717949 L31.2966017,4.98130342 L33.8553488,4.98130342 L33.8553488,5.53418803 L30.625,5.53418803 L30.625,5.53151709 Z M36.2836608,2.95940171 L34.7267659,0.710470085 L35.4566471,0.710470085 L36.7027181,2.50267094 L37.948789,0.710470085 L38.6786702,0.710470085 L37.0718215,3.02350427 L38.7841283,5.53151709 L38.0542471,5.53151709 L36.6527642,3.48023504 L35.2263044,5.53151709 L34.4964231,5.53151709 L36.2836608,2.95940171 Z M41.2013395,1.24732906 L40.3493489,1.24732906 L40.3493489,3.05555556 L41.2013395,3.05555556 C41.5177139,3.05555556 41.7647079,2.97809829 41.9395463,2.8258547 C42.1088344,2.66826923 42.194866,2.44123932 42.194866,2.1474359 C42.194866,1.86431624 42.1088344,1.64262821 41.9395463,1.48504274 C41.7647079,1.32745726 41.5177139,1.24732906 41.2013395,1.24732906 Z M39.6777472,5.53151709 L39.6777472,0.710470085 L41.2013395,0.710470085 C41.7647079,0.710470085 42.1893156,0.830662393 42.480713,1.07371795 C42.7637848,1.32211538 42.9080959,1.67735043 42.9080959,2.1474359 C42.9080959,2.62553419 42.76656,2.98611111 42.480713,3.22916667 C42.1920908,3.47222222 41.7647079,3.59241453 41.2013395,3.59241453 L40.3493489,3.59241453 L40.3493489,5.53418803 L39.6777472,5.53418803 L39.6777472,5.53151709 Z M43.818366,5.53151709 L43.818366,0.710470085 L44.4982934,0.710470085 L44.4982934,4.97863248 L46.9404815,4.97863248 L46.9404815,5.53151709 L43.818366,5.53151709 Z M49.440949,1.15384615 C48.9497362,1.15384615 48.5556559,1.33012821 48.2614832,1.68269231 C47.9784114,2.03525641 47.8341003,2.51602564 47.8341003,3.12767094 C47.8341003,3.73130342 47.9756362,4.21474359 48.2614832,4.57264957 C48.5556559,4.92521368 48.9497362,5.10149573 49.440949,5.10149573 C49.9321619,5.10149573 50.3206918,4.92521368 50.6037636,4.57264957 C50.8923858,4.21474359 51.0394721,3.73397436 51.0394721,3.12767094 C51.0394721,2.51869658 50.895161,2.03525641 50.6037636,1.68269231 C50.3206918,1.32745726 49.9321619,1.15384615 49.440949,1.15384615 Z M49.440949,0.625 C50.1403029,0.625 50.7008961,0.852029915 51.1227285,1.3034188 C51.544561,1.75480769 51.7527021,2.36378205 51.7527021,3.125 C51.7527021,3.88888889 51.5417858,4.49519231 51.1227285,4.9465812 C50.7008961,5.39797009 50.1403029,5.625 49.440949,5.625 C48.7360447,5.625 48.1699011,5.39797009 47.7425182,4.9465812 C47.3206857,4.49519231 47.1125447,3.88621795 47.1125447,3.125 C47.1125447,2.36111111 47.323461,1.75480769 47.7425182,1.3034188 C48.1699011,0.849358974 48.7360447,0.625 49.440949,0.625 Z M55.1884167,3.26655983 C55.335503,3.31463675 55.4770389,3.41613248 55.6157996,3.57371795 C55.751785,3.72596154 55.8905457,3.93963675 56.0348568,4.21207265 L56.7231098,5.52884615 L55.9932286,5.52884615 L55.3549295,4.28952991 C55.1856414,3.96901709 55.024679,3.75534188 54.8720423,3.65117521 C54.7138551,3.54700855 54.5001636,3.49358974 54.2337431,3.49358974 L53.4955363,3.49358974 L53.4955363,5.52884615 L52.8156089,5.52884615 L52.8156089,0.710470085 L54.3475269,0.710470085 C54.9219961,0.710470085 55.349379,0.825320513 55.6352261,1.05769231 C55.9127474,1.28472222 56.0542833,1.63194444 56.0542833,2.09935897 C56.0542833,2.40384615 55.9793526,2.65758547 55.8322662,2.85790598 C55.6796295,3.05555556 55.4687132,3.19444444 55.1884167,3.26655983 Z M54.3447517,1.24732906 L53.4927611,1.24732906 L53.4927611,2.95940171 L54.3447517,2.95940171 C54.6722269,2.95940171 54.9192209,2.88461538 55.0829585,2.73771368 C55.2522466,2.59081197 55.3382782,2.37713675 55.3382782,2.09935897 C55.3382782,1.81623932 55.2522466,1.6025641 55.0829585,1.46100427 C54.9192209,1.31944444 54.6722269,1.24732906 54.3447517,1.24732906 Z M57.5917517,5.53151709 L57.5917517,0.710470085 L60.7554954,0.710470085 L60.7554954,1.25534188 L58.2716791,1.25534188 L58.2716791,2.68429487 L60.6583629,2.68429487 L60.6583629,3.23717949 L58.2716791,3.23717949 L58.2716791,4.98130342 L60.8221005,4.98130342 L60.8221005,5.53418803 L57.5917517,5.53418803 L57.5917517,5.53151709 Z M64.1162792,5.53151709 L64.1162792,0.710470085 L64.7962066,0.710470085 L64.7962066,5.53151709 L64.1162792,5.53151709 L64.1162792,5.53151709 Z M65.4539322,1.25534188 L65.4539322,0.710470085 L69.6916836,0.710470085 L69.6916836,1.25534188 L67.9127716,1.25534188 L67.9127716,5.53151709 L67.2328442,5.53151709 L67.2328442,1.25534188 L65.4539322,1.25534188 Z M74.5621836,1.15384615 C74.0709708,1.15384615 73.6796657,1.33012821 73.3910435,1.68269231 C73.1024212,2.03525641 72.9553349,2.51602564 72.9553349,3.12767094 C72.9553349,3.73130342 73.099646,4.21474359 73.3910435,4.57264957 C73.6796657,4.92521368 74.0709708,5.10149573 74.5621836,5.10149573 C75.0533965,5.10149573 75.4447016,4.92521368 75.7333238,4.57264957 C76.0163956,4.21474359 76.1607067,3.73397436 76.1607067,3.12767094 C76.1607067,2.51869658 76.0191708,2.03525641 75.7333238,1.68269231 C75.4447016,1.32745726 75.0533965,1.15384615 74.5621836,1.15384615 Z M74.5621836,0.625 C75.2670879,0.625 75.8304563,0.852029915 76.2522888,1.3034188 C76.6741213,1.75480769 76.8822623,2.36378205 76.8822623,3.125 C76.8822623,3.88888889 76.6713461,4.49519231 76.2522888,4.9465812 C75.8332315,5.39797009 75.2670879,5.625 74.5621836,5.625 C73.8572794,5.625 73.293911,5.39797009 72.8720785,4.9465812 C72.450246,4.49519231 72.242105,3.88621795 72.242105,3.125 C72.242105,2.36111111 72.4530212,1.75480769 72.8720785,1.3034188 C73.293911,0.849358974 73.8572794,0.625 74.5621836,0.625 Z M77.9396187,5.53151709 L77.9396187,0.710470085 L78.8498888,0.710470085 L81.072835,4.74358974 L81.072835,0.710470085 L81.7361111,0.710470085 L81.7361111,5.53151709 L80.8175154,5.53151709 L78.5945692,1.49839744 L78.5945692,5.53151709 L77.9396187,5.53151709 L77.9396187,5.53151709 Z" id="EXPLORE_IT_ON" fill="#010202" fill-rule="nonzero"></path>
                            <path d="M16.621192,0 L6.51324289,0 C1.74546104,0 0,1.73602611 0,6.50380797 L0,16.6117571 C0,21.379539 1.74546104,23.125 6.51324289,23.125 L16.621192,23.125 C21.379539,23.125 23.125,21.379539 23.125,16.6117571 L23.125,6.50380797 C23.125,1.73602611 21.3889739,0 16.621192,0 Z" id="Path_5" fill="#010202" fill-rule="nonzero"></path>
                            <path d="M10.2193462,13.7047313 L9.94672239,14.3191443 L9.34021092,14.3191443 L10.6328768,11.3401723 L11.1566821,11.3401723 L12.449348,14.3191443 L11.8244574,14.3191443 L11.5610231,13.7047313 L10.2193462,13.7047313 Z M10.4337695,13.1647926 L11.3374103,13.1647926 L10.8840583,12.1004308 L10.4337695,13.1647926 Z M20.0276781,11.3401723 L20.625,11.3401723 L20.625,14.3191443 L20.0276781,14.3191443 L20.0276781,11.3401723 Z M17.6843384,13.7792056 L19.3231446,13.7792056 L19.3231446,14.3191443 L17.096206,14.3191443 L17.096206,11.3401723 L19.2588176,11.3401723 L19.2588176,11.8894203 L17.6843384,11.8894203 L17.6843384,12.4945239 L18.7717705,12.4945239 L18.7717705,13.0437719 L17.6843384,13.0437719 L17.6843384,13.7792056 Z M15.9903947,11.3401723 L16.6152853,11.3401723 L15.5921801,14.3284536 L15.0867539,14.3284536 L14.4159155,12.367297 L13.745077,14.3284536 L13.2549667,14.3284536 L12.222672,11.3401723 L12.8659417,11.3401723 L13.518401,13.3944217 L14.1800499,11.3401723 L14.6701602,11.3401723 L15.3409986,13.3944217 L15.9903947,11.3401723 Z M8.4365701,11.3401723 L9.033892,11.3401723 L9.033892,13.0282564 C9.033892,13.8816078 8.57135043,14.375 7.7565421,14.375 C6.9601129,14.375 6.49757133,13.887814 6.49757133,13.046875 L6.49757133,11.3432754 L7.09489323,11.3432754 L7.09489323,13.0313595 C7.09489323,13.534061 7.3307588,13.8009273 7.76573166,13.8009273 C8.20070453,13.8009273 8.4365701,13.534061 8.4365701,13.0499781 L8.4365701,11.3401723 L8.4365701,11.3401723 Z M5.07012515,11.3401723 L5.66744705,11.3401723 L5.66744705,14.3284536 L5.07012515,14.3284536 L5.07012515,13.1089369 L3.7223219,13.1089369 L3.7223219,14.3284536 L3.125,14.3284536 L3.125,11.3401723 L3.7223219,11.3401723 L3.7223219,12.5410704 L5.07012515,12.5410704 L5.07012515,11.3401723 Z M11.8734684,7.54508616 C9.79968931,7.54508616 8.12718799,5.84148657 8.12718799,3.75 L8.65099335,3.75 C8.65099335,5.54669246 10.0998818,7.00514749 11.8734684,7.00514749 C13.647055,7.00514749 15.0959435,5.54669246 15.0959435,3.75 L15.6197488,3.75 C15.6197488,5.83838347 13.9380579,7.54508616 11.8734684,7.54508616 Z" id="Path_6" fill="#FFFFFF"></path>
                        </g>
                    </g>
                </g>
            </g>
        </g>
    </g>
</svg>