<svg xmlns="http://www.w3.org/2000/svg" width="135" height="40" viewBox="0 0 135 40">
    <g fill="none" fill-rule="evenodd" opacity=".497">
        <g fill="#000" fill-rule="nonzero">
            <g>
                <g>
                    <g>
                        <path d="M130 .8c1.114 0 2.183.442 2.97 1.23.787.788 1.23 1.856 1.23 2.97v30c0 1.114-.442 2.182-1.23 2.97-.787.788-1.856 1.23-2.97 1.23H5c-1.114 0-2.182-.443-2.97-1.23C1.243 37.182.8 36.114.8 35V5c0-1.114.442-2.182 1.23-2.97C2.818 1.243 3.886.8 5 .8h125zm0-.8H5C3.674 0 2.402.527 1.464 1.464.527 2.402 0 3.674 0 5v30c0 1.326.527 2.598 1.464 3.536C2.402 39.473 3.674 40 5 40h125c1.326 0 2.598-.527 3.536-1.464.937-.938 1.464-2.21 1.464-3.536V5c0-1.326-.527-2.598-1.464-3.536C132.598.527 131.326 0 130 0z" transform="translate(-230 -1058) translate(165 920.317) translate(65 84.683) translate(0 53)"/>
                        <path d="M32.113 19.313c-.028-3.07 2.514-4.565 2.63-4.634-1.44-2.1-3.67-2.386-4.455-2.41-1.874-.196-3.692 1.122-4.647 1.122-.973 0-2.443-1.102-4.028-1.07-2.04.032-3.947 1.212-4.993 3.046-2.159 3.737-.549 9.23 1.52 12.252 1.035 1.48 2.244 3.131 3.826 3.073 1.549-.064 2.127-.987 3.996-.987 1.85 0 2.394.987 4.008.95 1.662-.027 2.708-1.486 3.706-2.98 1.196-1.695 1.676-3.366 1.695-3.451-.039-.014-3.227-1.23-3.258-4.911zM29.064 10.282c.833-1.041 1.402-2.458 1.244-3.896-1.205.054-2.712.834-3.58 1.853-.768.897-1.454 2.368-1.277 3.752 1.354.1 2.744-.684 3.613-1.709zM54.52 30.48h-2.164l-1.185-3.725h-4.12l-1.13 3.725h-2.106l4.082-12.68h2.52l4.103 12.68zm-3.707-5.287l-1.072-3.311c-.113-.339-.325-1.135-.639-2.39h-.038c-.125.54-.326 1.337-.602 2.39l-1.053 3.31h3.404zM65.017 25.796c0 1.555-.42 2.784-1.26 3.686-.754.803-1.688 1.204-2.804 1.204-1.205 0-2.07-.432-2.597-1.297h-.038v4.816h-2.031v-9.858c0-.978-.026-1.981-.075-3.01h1.786l.114 1.449h.038c.677-1.092 1.705-1.637 3.085-1.637 1.078 0 1.979.426 2.7 1.279.721.853 1.082 1.976 1.082 3.368zm-2.07.074c0-.89-.2-1.623-.602-2.2-.44-.603-1.03-.904-1.768-.904-.502 0-.957.168-1.364.498-.408.334-.675.77-.8 1.308-.062.252-.094.458-.094.62v1.524c0 .665.204 1.226.612 1.685.408.458.938.687 1.59.687.764 0 1.36-.296 1.786-.885.427-.59.64-1.367.64-2.333zM75.533 25.796c0 1.555-.42 2.784-1.262 3.686-.752.803-1.686 1.204-2.802 1.204-1.204 0-2.069-.432-2.595-1.297h-.038v4.816h-2.032v-9.858c0-.978-.025-1.981-.075-3.01h1.787l.113 1.449h.038c.677-1.092 1.704-1.637 3.085-1.637 1.078 0 1.978.426 2.7 1.279.72.853 1.081 1.976 1.081 3.368zm-2.07.074c0-.89-.2-1.623-.603-2.2-.439-.603-1.027-.904-1.767-.904-.502 0-.957.168-1.365.498-.407.334-.673.77-.798 1.308-.062.252-.094.458-.094.62v1.524c0 .665.203 1.226.61 1.685.407.457.937.687 1.59.687.766 0 1.361-.296 1.787-.885.427-.59.64-1.367.64-2.333zM87.29 26.924c0 1.079-.374 1.956-1.126 2.634-.826.74-1.976 1.11-3.453 1.11-1.365 0-2.459-.264-3.287-.79l.471-1.694c.892.54 1.87.81 2.936.81.766 0 1.36-.173 1.789-.518.426-.345.638-.808.638-1.385 0-.515-.175-.948-.527-1.3-.35-.352-.933-.678-1.75-.98-2.22-.828-3.328-2.041-3.328-3.636 0-1.043.389-1.897 1.167-2.562.776-.666 1.81-.999 3.104-.999 1.154 0 2.113.201 2.878.602l-.508 1.656c-.715-.389-1.523-.583-2.426-.583-.715 0-1.274.176-1.674.527-.338.313-.508.696-.508 1.148 0 .501.193.916.582 1.242.339.3.953.627 1.845.978 1.09.44 1.893.953 2.408 1.542.513.587.77 1.321.77 2.198zM94.007 22.861h-2.239v4.44c0 1.128.394 1.692 1.185 1.692.363 0 .665-.031.903-.094l.056 1.543c-.4.15-.928.225-1.58.225-.803 0-1.43-.245-1.882-.734-.45-.49-.678-1.311-.678-2.465v-4.609H88.44v-1.524h1.334V19.66l1.995-.603v2.277h2.239v1.526zM104.11 25.833c0 1.405-.403 2.56-1.205 3.462-.841.929-1.958 1.392-3.35 1.392-1.341 0-2.41-.445-3.206-1.335-.797-.89-1.195-2.014-1.195-3.367 0-1.417.41-2.578 1.232-3.48.82-.903 1.928-1.355 3.32-1.355 1.341 0 2.42.445 3.235 1.336.78.864 1.168 1.98 1.168 3.347zm-2.108.066c0-.843-.18-1.567-.545-2.17-.426-.73-1.035-1.094-1.824-1.094-.816 0-1.437.365-1.862 1.094-.365.604-.545 1.339-.545 2.208 0 .843.18 1.566.545 2.168.439.73 1.052 1.094 1.844 1.094.776 0 1.384-.371 1.824-1.113.374-.614.563-1.345.563-2.187zM110.713 23.123c-.202-.037-.416-.056-.641-.056-.715 0-1.267.27-1.656.81-.338.476-.508 1.078-.508 1.805v4.798h-2.03l.019-6.264c0-1.054-.026-2.013-.076-2.878h1.769l.074 1.749h.057c.214-.601.552-1.085 1.015-1.448.453-.327.941-.49 1.468-.49.188 0 .358.013.509.037v1.937zM119.797 25.476c0 .364-.023.67-.074.921h-6.094c.023.903.318 1.594.884 2.07.514.426 1.178.64 1.993.64.903 0 1.726-.144 2.466-.433l.319 1.41c-.866.378-1.887.565-3.066.565-1.417 0-2.53-.417-3.34-1.25-.808-.834-1.213-1.954-1.213-3.358 0-1.379.376-2.527 1.13-3.443.789-.977 1.855-1.466 3.197-1.466 1.317 0 2.315.489 2.992 1.466.537.777.806 1.737.806 2.878zm-1.937-.527c.014-.602-.119-1.123-.394-1.562-.352-.565-.892-.847-1.62-.847-.663 0-1.204.275-1.616.828-.338.44-.54.966-.601 1.58h4.231zM50.142 10c0 1.12-.336 1.965-1.008 2.532-.622.523-1.507.785-2.652.785-.568 0-1.054-.025-1.46-.074V7.115c.53-.086 1.102-.13 1.72-.13 1.09 0 1.913.238 2.467.712.621.537.933 1.304.933 2.302zm-1.053.027c0-.727-.192-1.284-.577-1.673-.385-.388-.947-.582-1.688-.582-.314 0-.582.02-.804.064v4.659c.123.019.348.027.675.027.764 0 1.354-.212 1.769-.637.415-.425.625-1.044.625-1.858zM55.724 10.979c0 .69-.197 1.257-.591 1.7-.414.457-.962.685-1.646.685-.66 0-1.184-.219-1.576-.657-.39-.437-.586-.989-.586-1.654 0-.695.201-1.266.605-1.71.404-.442.947-.664 1.632-.664.659 0 1.189.218 1.59.655.381.425.572.974.572 1.645zm-1.035.032c0-.414-.09-.77-.268-1.066-.21-.358-.508-.537-.896-.537-.4 0-.706.179-.915.537-.18.296-.268.657-.268 1.084 0 .415.09.77.268 1.066.216.359.517.538.906.538.381 0 .68-.182.895-.547.185-.302.278-.66.278-1.075zM63.21 8.77l-1.406 4.492h-.914l-.582-1.95c-.148-.488-.268-.972-.362-1.452h-.018c-.086.494-.206.977-.36 1.451l-.62 1.95h-.924l-1.322-4.49h1.026l.508 2.134c.123.505.224.987.305 1.442h.018c.074-.375.197-.854.37-1.432l.638-2.144h.814l.61 2.098c.148.512.268 1.004.36 1.479h.028c.068-.462.17-.955.305-1.479l.545-2.098h.981zM68.386 13.262h-.998v-2.573c0-.793-.301-1.189-.906-1.189-.296 0-.535.109-.72.327-.184.218-.278.475-.278.77v2.664h-.998v-3.207c0-.395-.013-.823-.037-1.286h.878l.047.702h.027c.117-.218.29-.398.518-.542.27-.167.573-.252.905-.252.42 0 .768.135 1.045.407.345.332.517.829.517 1.488v2.69zM71.14 13.262L70.142 13.262 70.142 6.709 71.14 6.709zM77.019 10.979c0 .69-.198 1.257-.592 1.7-.413.457-.962.685-1.646.685-.66 0-1.185-.219-1.575-.657-.391-.437-.587-.989-.587-1.654 0-.695.202-1.266.605-1.71.405-.442.948-.664 1.631-.664.66 0 1.189.218 1.591.655.382.425.573.974.573 1.645zm-1.037.032c0-.414-.09-.77-.268-1.066-.208-.358-.508-.537-.895-.537-.401 0-.707.179-.915.537-.179.296-.268.657-.268 1.084 0 .415.09.77.268 1.066.216.359.517.538.906.538.381 0 .68-.182.895-.547.186-.302.277-.66.277-1.075zM81.851 13.262h-.897l-.073-.518h-.028c-.307.413-.744.62-1.312.62-.424 0-.767-.137-1.025-.407-.235-.246-.352-.552-.352-.915 0-.549.228-.967.689-1.257.459-.29 1.105-.431 1.937-.425v-.083c0-.592-.31-.887-.933-.887-.443 0-.834.111-1.17.332l-.204-.655c.418-.259.933-.388 1.54-.388 1.175 0 1.763.62 1.763 1.858v1.654c0 .448.022.806.065 1.07zm-1.037-1.544v-.693c-1.1-.019-1.651.283-1.651.906 0 .234.063.41.19.527.13.117.293.175.489.175.22 0 .424-.07.61-.208.188-.139.304-.315.346-.532.01-.048.016-.107.016-.175zM87.525 13.262h-.886l-.046-.722h-.029c-.282.55-.765.824-1.442.824-.541 0-.992-.213-1.349-.638-.357-.425-.535-.976-.535-1.654 0-.727.193-1.316.581-1.765.377-.42.838-.63 1.387-.63.603 0 1.025.204 1.265.61h.02V6.71h.999v5.343c0 .437.011.84.035 1.21zm-1.034-1.895v-.748c0-.13-.01-.235-.028-.315-.057-.24-.177-.442-.361-.605-.186-.163-.41-.245-.668-.245-.373 0-.665.148-.879.444-.213.297-.32.675-.32 1.137 0 .444.102.804.307 1.081.216.296.508.444.872.444.329 0 .59-.123.79-.37.192-.228.287-.502.287-.822zM96.066 10.979c0 .69-.198 1.257-.592 1.7-.414.457-.96.685-1.646.685-.658 0-1.183-.219-1.576-.657-.39-.437-.586-.989-.586-1.654 0-.695.202-1.266.605-1.71.404-.442.947-.664 1.633-.664.658 0 1.189.218 1.589.655.38.425.573.974.573 1.645zm-1.035.032c0-.414-.09-.77-.268-1.066-.21-.358-.508-.537-.897-.537-.4 0-.705.179-.915.537-.18.296-.268.657-.268 1.084 0 .415.09.77.268 1.066.216.359.517.538.906.538.381 0 .681-.182.896-.547.184-.302.278-.66.278-1.075zM101.434 13.262h-.997v-2.573c0-.793-.301-1.189-.906-1.189-.297 0-.536.109-.721.327-.184.218-.277.475-.277.77v2.664h-1v-3.207c0-.395-.011-.823-.035-1.286h.877l.046.702h.028c.117-.218.29-.398.517-.542.272-.167.574-.252.907-.252.418 0 .766.135 1.044.407.346.332.517.829.517 1.488v2.69zM108.154 9.518h-1.1V11.7c0 .555.196.832.583.832.18 0 .327-.015.445-.047l.026.758c-.198.074-.457.111-.776.111-.394 0-.701-.12-.923-.36-.223-.24-.334-.644-.334-1.211V9.518h-.656V8.77h.656v-.823l.979-.295v1.117h1.1v.75zM113.44 13.262h-.999v-2.554c0-.805-.301-1.208-.904-1.208-.463 0-.78.233-.953.7-.03.099-.047.219-.047.36v2.7h-.997V6.71h.997v2.706h.02c.314-.492.765-.738 1.349-.738.413 0 .755.135 1.027.407.338.338.508.84.508 1.506v2.67zM118.894 10.803c0 .18-.013.33-.037.453h-2.995c.013.444.156.782.434 1.017.253.21.58.314.98.314.443 0 .847-.07 1.21-.212l.157.693c-.425.185-.927.278-1.507.278-.696 0-1.243-.205-1.64-.615-.398-.41-.595-.96-.595-1.65 0-.677.183-1.24.554-1.69.387-.48.91-.72 1.57-.72.646 0 1.137.24 1.469.72.267.38.4.852.4 1.412zm-.953-.258c.008-.296-.059-.551-.194-.767-.173-.277-.437-.416-.794-.416-.326 0-.592.135-.795.407-.165.216-.264.474-.296.776h2.079z" transform="translate(-230 -1058) translate(165 920.317) translate(65 84.683) translate(0 53)"/>
                    </g>
                </g>
            </g>
        </g>
    </g>
</svg>
