<svg xmlns="http://www.w3.org/2000/svg" xmlns:xlink="http://www.w3.org/1999/xlink" width="445" height="300" viewBox="0 0 445 300">
  <defs>
    <clipPath id="clip-path">
      <rect id="Mask" width="445" height="300" rx="10" fill="#fafafa"/>
    </clipPath>
  </defs>
  <g id="Bitmap" clip-path="url(#clip-path)">
    <g id="meeting-headphones-1" transform="translate(222.5 -38)" opacity="0.05">
      <path id="Path" d="M244.169,113.473a2.907,2.907,0,0,1-1.648-2.557,111.045,111.045,0,0,0-222.089,0A2.93,2.93,0,0,1,18.8,113.5,31.71,31.71,0,0,0,0,141.564V176.59A34.281,34.281,0,0,0,36.037,208.7H63.319a8.762,8.762,0,0,0,8.767-8.757V118.213a8.762,8.762,0,0,0-8.767-8.757H47.059a2.889,2.889,0,0,1-2.139-.922,2.987,2.987,0,0,1-.783-2.195,87.568,87.568,0,0,1,174.726,0,2.987,2.987,0,0,1-.783,2.195,2.936,2.936,0,0,1-2.139.922H199.681a8.762,8.762,0,0,0-8.767,8.757V199.94a8.762,8.762,0,0,0,8.767,8.757H210.4a2.921,2.921,0,0,1,2.922,2.919,23.364,23.364,0,0,1-23.378,23.351h-19.17a2.947,2.947,0,0,1-2.431-1.284,23.357,23.357,0,1,0,0,25.931,2.958,2.958,0,0,1,2.431-1.3h19.17a46.728,46.728,0,0,0,46.756-46.7v-2.043a2.919,2.919,0,0,1,2.057-2.79A32.547,32.547,0,0,0,263,176.59V141.564A31.745,31.745,0,0,0,244.169,113.473Z"/>
    </g>
  </g>
</svg>
