<svg xmlns="http://www.w3.org/2000/svg" width="135" height="40" viewBox="0 0 135 40">
    <g fill="none" fill-rule="evenodd" opacity=".497">
        <g fill="#000">
            <g>
                <g>
                    <g>
                        <path fill-rule="nonzero" d="M130 .8c1.114 0 2.183.442 2.97 1.23.787.788 1.23 1.856 1.23 2.97v30c0 1.114-.442 2.182-1.23 2.97-.787.788-1.856 1.23-2.97 1.23H5c-1.114 0-2.182-.443-2.97-1.23C1.243 37.182.8 36.114.8 35V5c0-1.114.442-2.182 1.23-2.97C2.818 1.243 3.886.8 5 .8h125zm0-.8H5C3.674 0 2.402.527 1.464 1.464.527 2.402 0 3.674 0 5v30c0 1.326.527 2.598 1.464 3.536C2.402 39.473 3.674 40 5 40h125c1.326 0 2.598-.527 3.536-1.464.937-.938 1.464-2.21 1.464-3.536V5c0-1.326-.527-2.598-1.464-3.536C132.598.527 131.326 0 130 0z" transform="translate(-377 -1058) translate(165 920.317) translate(65 84.683) translate(147 53)"/>
                        <path fill-rule="nonzero" d="M68.14 21.75c-.84.004-1.66.257-2.356.726-.696.47-1.238 1.134-1.556 1.911-.319.777-.4 1.631-.234 2.454.167.823.573 1.579 1.168 2.171.595.593 1.352.995 2.176 1.158.824.162 1.678.077 2.453-.246.775-.322 1.438-.866 1.904-1.565.466-.698.715-1.52.715-2.359.008-.562-.097-1.12-.309-1.64-.212-.521-.527-.994-.925-1.39-.398-.397-.872-.71-1.394-.919-.521-.21-1.08-.312-1.642-.301zm0 6.83c-.516.036-1.032-.084-1.479-.345-.447-.26-.806-.65-1.03-1.117-.222-.467-.3-.99-.222-1.502.08-.512.31-.988.662-1.367.353-.379.81-.643 1.316-.758.504-.115 1.032-.076 1.514.113s.897.518 1.188.946c.293.427.45.932.451 1.45.016.328-.034.656-.146.964-.113.309-.286.592-.51.832-.223.24-.493.434-.793.569-.3.134-.623.207-.951.215zm-9.31-6.83c-.84.002-1.66.253-2.358.721-.698.468-1.241 1.133-1.561 1.91-.32.776-.403 1.63-.238 2.454.165.824.57 1.58 1.165 2.174.595.593 1.352.997 2.177 1.16.824.163 1.678.078 2.454-.244.776-.321 1.439-.866 1.905-1.565.467-.699.716-1.52.716-2.36.008-.562-.097-1.12-.309-1.64-.212-.521-.526-.994-.925-1.39-.398-.397-.872-.71-1.394-.919-.522-.21-1.08-.312-1.642-.301h.01zm0 6.83c-.517.038-1.033-.08-1.481-.34-.449-.259-.809-.647-1.034-1.114-.224-.467-.303-.99-.226-1.503.077-.512.306-.99.658-1.37.352-.38.81-.645 1.316-.76.505-.116 1.033-.078 1.515.11.483.19.898.518 1.19.946.293.427.45.933.452 1.451.016.328-.034.656-.146.964-.113.309-.286.592-.51.832-.224.24-.493.434-.793.569-.3.134-.623.207-.951.215h.01zm-11.09-5.52v1.8h4.32c-.068.848-.42 1.648-1 2.27-.432.44-.952.785-1.525 1.012-.574.228-1.189.333-1.805.308-1.273 0-2.494-.506-3.394-1.406-.9-.9-1.406-2.12-1.406-3.394 0-1.273.506-2.494 1.406-3.394.9-.9 2.12-1.406 3.394-1.406 1.218-.02 2.394.444 3.27 1.29l1.27-1.27c-.592-.599-1.297-1.073-2.075-1.394-.779-.322-1.613-.483-2.455-.476-.889-.035-1.776.11-2.607.427-.832.316-1.591.797-2.232 1.414-.641.617-1.152 1.357-1.5 2.175-.348.819-.528 1.7-.528 2.589 0 .89.18 1.77.528 2.589.348.818.859 1.558 1.5 2.175.641.617 1.4 1.098 2.232 1.414.831.316 1.718.462 2.607.427.856.039 1.71-.106 2.505-.426.796-.319 1.513-.804 2.105-1.424 1.048-1.151 1.607-2.664 1.56-4.22.003-.379-.03-.757-.1-1.13l-6.07.05zm45.31 1.4c-.26-.767-.749-1.437-1.399-1.921s-1.431-.76-2.241-.789c-.547-.001-1.088.11-1.59.326-.503.217-.956.534-1.33.933-.376.398-.665.869-.85 1.383-.186.515-.264 1.062-.23 1.608-.012.559.089 1.115.296 1.634.207.519.517.99.91 1.388.395.396.865.71 1.383.92.517.212 1.072.316 1.631.308.7.004 1.389-.166 2.007-.494.617-.328 1.144-.804 1.533-1.386l-1.45-1c-.216.36-.522.66-.89.866-.366.207-.78.315-1.2.314-.433.017-.861-.098-1.229-.328-.367-.23-.657-.565-.831-.962l5.69-2.35-.21-.45zm-5.8 1.42c-.02-.31.021-.62.123-.913.1-.293.26-.562.466-.793.207-.231.457-.419.737-.552.28-.132.585-.208.894-.222.323-.021.644.053.925.213s.509.399.655.687l-3.8 1.58zM82.63 30h1.87V17.5h-1.87V30zm-3.06-7.3h-.07c-.282-.315-.627-.567-1.013-.74-.386-.172-.804-.26-1.227-.26-1.093.053-2.123.524-2.878 1.317-.755.792-1.176 1.844-1.176 2.938s.421 2.146 1.176 2.938c.755.793 1.785 1.264 2.878 1.317.424.007.844-.079 1.231-.252.387-.172.731-.428 1.009-.748h.06v.61c0 1.63-.87 2.5-2.27 2.5-.466-.01-.919-.16-1.3-.43-.381-.268-.673-.644-.84-1.08l-1.63.68c.307.746.83 1.384 1.501 1.831.672.447 1.462.684 2.269.68 2.19 0 4-1.291 4-4.431V22h-1.72v.7zm-2.14 5.88c-.645-.057-1.246-.353-1.683-.83-.437-.478-.68-1.102-.68-1.75 0-.648.243-1.272.68-1.75.437-.477 1.038-.773 1.683-.83.32.016.633.097.921.236.289.14.546.335.758.576.212.24.373.52.474.824.102.304.141.625.117.944.028.32-.01.644-.112.95-.101.305-.263.587-.476.828-.213.24-.473.436-.764.574-.29.138-.606.216-.928.228h.01zm24.38-11.08h-4.47V30h1.87v-4.74h2.61c.533.038 1.068-.034 1.572-.211.504-.178.966-.457 1.357-.822.391-.364.703-.804.917-1.294.213-.49.323-1.019.323-1.553s-.11-1.063-.323-1.553c-.214-.49-.526-.93-.917-1.295-.39-.364-.853-.643-1.357-.82-.504-.178-1.039-.25-1.572-.212h-.01zm0 6H99.2v-4.26h2.65c.569 0 1.114.226 1.517.628.402.402.628.948.628 1.517s-.226 1.114-.628 1.517c-.403.402-.948.628-1.517.628l-.04-.03zm11.53-1.8c-.68-.04-1.359.118-1.95.458-.592.34-1.071.844-1.38 1.452l1.66.69c.164-.302.411-.55.713-.713.302-.163.645-.235.987-.207.237-.028.478-.008.707.058.23.067.444.178.63.328.187.15.341.335.455.545.114.21.184.441.208.679v.13c-.6-.318-1.27-.483-1.95-.48-1.79 0-3.6 1-3.6 2.81.018.386.113.764.279 1.113.167.349.401.66.69.917.29.256.627.452.993.576.365.123.753.172 1.138.144.47.034.942-.06 1.364-.27.423-.212.78-.533 1.036-.93h.06v1h1.8v-4.81c0-2.19-1.66-3.46-3.79-3.46l-.05-.03zm-.23 6.85c-.61 0-1.46-.31-1.46-1.06 0-1 1.06-1.33 2-1.33.594-.015 1.181.13 1.7.42-.063.541-.319 1.042-.721 1.41-.403.367-.924.577-1.469.59l-.05-.03zM123.74 22l-2.14 5.42h-.06L119.32 22h-2l3.33 7.58-1.9 4.21h1.95L125.82 22h-2.08zm-16.81 8h1.87V17.5h-1.87V30zM47.358 10.303c.017.366-.041.733-.17 1.076-.129.344-.326.658-.58.924-.284.294-.627.526-1.006.679-.379.153-.786.225-1.194.21-.62-.004-1.225-.192-1.739-.54-.514-.346-.914-.837-1.15-1.41-.236-.574-.297-1.204-.176-1.812.12-.609.418-1.168.855-1.607.287-.294.631-.525 1.011-.68.38-.154.788-.23 1.199-.22.422-.002.84.083 1.23.25.361.145.684.375.94.67l-.53.53c-.2-.238-.452-.426-.737-.549-.284-.123-.594-.178-.903-.162-.313-.001-.622.06-.91.181-.288.121-.549.3-.766.523-.218.225-.388.49-.5.782-.113.291-.165.602-.154.915-.007.466.125.923.378 1.315.253.391.617.699 1.045.884.427.185.9.239 1.36.155.458-.083.881-.3 1.217-.624.307-.334.485-.767.5-1.22h-2.17v-.72h2.91c.026.148.04.299.04.45zm4.58-2.5h-2.7v1.9h2.46v.72h-2.46v1.9h2.7v.74h-3.5v-6h3.5v.74zm3.28 5.26h-.77v-5.26h-1.68v-.74h4.17v.74h-1.72v5.26zm4.66 0v-6h.77v6h-.77zm4.19 0h-.77v-5.26h-1.68v-.74h4.12v.74h-1.67v5.26zm9.48-.78c-.585.58-1.376.907-2.2.907-.825 0-1.615-.326-2.2-.907-.569-.602-.885-1.398-.885-2.226 0-.827.316-1.623.884-2.225.289-.29.632-.52 1.01-.677.377-.158.782-.239 1.19-.239.41 0 .814.081 1.192.239.378.157.72.387 1.008.677.571.6.89 1.397.89 2.225 0 .829-.319 1.625-.89 2.226zm-3.83-.5c.433.43 1.019.673 1.63.673.61 0 1.196-.242 1.63-.673.427-.471.663-1.085.663-1.72 0-.636-.236-1.25-.663-1.72-.434-.432-1.02-.674-1.63-.674-.611 0-1.197.242-1.63.673-.427.471-.664 1.085-.664 1.72 0 .636.237 1.25.663 1.72zm5.8 1.28v-6h.94l2.92 4.67v-4.67h.77v6h-.8l-3.05-4.89v4.89h-.78z" transform="translate(-377 -1058) translate(165 920.317) translate(65 84.683) translate(147 53)"/>
                        <path d="M71.347 7.016c-.395 0-.787.079-1.153.231-.365.152-.696.375-.975.655-.55.583-.856 1.354-.856 2.155 0 .802.306 1.573.856 2.156.566.562 1.331.877 2.129.877.797 0 1.563-.315 2.128-.877.552-.582.86-1.353.86-2.155 0-.803-.308-1.574-.86-2.156-.278-.28-.61-.503-.975-.655-.366-.152-.758-.23-1.154-.23zm-1.23.046c.39-.162.809-.246 1.23-.246.423 0 .84.084 1.23.246.39.163.744.4 1.042.7l.001.002c.588.619.916 1.44.916 2.293 0 .854-.328 1.675-.916 2.294l-.002.002c-.603.6-1.42.937-2.27.937-.851 0-1.667-.337-2.271-.937l-.002-.002c-.586-.62-.913-1.44-.913-2.294 0-.853.327-1.673.913-2.293l.002-.002c.297-.3.651-.537 1.04-.7zm-25.712-.04c-.396-.008-.79.064-1.158.214-.367.15-.7.373-.978.656v.001c-.424.426-.712.967-.828 1.556-.117.589-.058 1.2.17 1.754.23.556.617 1.03 1.114 1.367.497.336 1.083.518 1.683.522h.003c.395.015.788-.055 1.154-.203.366-.148.697-.371.97-.656.245-.255.435-.558.56-.889.123-.33.18-.684.163-1.037l.1-.005h-.1c0-.117-.009-.234-.026-.35h-2.724v.52h2.173l-.003.104c-.016.477-.203.933-.527 1.284l-.004.005c-.35.337-.79.564-1.269.65-.478.088-.971.031-1.417-.162-.446-.192-.825-.513-1.089-.921-.264-.407-.4-.883-.394-1.369-.011-.324.043-.648.16-.951.117-.304.295-.581.522-.815.227-.234.499-.42.8-.546.299-.126.62-.19.945-.189.324-.017.648.041.946.17.266.115.504.284.701.495l.388-.388c-.235-.25-.521-.445-.84-.574h-.002c-.376-.161-.78-.244-1.19-.242h-.003zm3.053 3.278c.017.38-.043.759-.176 1.115-.134.356-.339.682-.602.957-.294.304-.648.544-1.04.703-.392.158-.812.232-1.235.218-.639-.006-1.262-.2-1.792-.557-.53-.358-.943-.865-1.186-1.457-.244-.591-.307-1.241-.183-1.869.125-.627.432-1.204.882-1.658.297-.303.653-.541 1.046-.701.392-.16.813-.238 1.237-.229.435 0 .866.087 1.267.258.376.152.71.39.977.697l.061.07-.673.673-.07-.083c-.19-.226-.429-.404-.7-.521-.27-.117-.564-.17-.858-.154h-.006c-.299 0-.595.058-.87.174-.276.115-.525.286-.734.5-.208.215-.37.469-.478.748-.108.279-.158.576-.147.875v.005c-.007.446.12.884.362 1.26.242.374.59.669 1 .846.41.177.863.23 1.302.15.439-.08.843-.288 1.164-.597.267-.29.43-.66.465-1.05h-2.163v-.92H47.4l.015.082c.028.153.042.31.042.465zm.88-3.338h3.7v.94h-2.7v1.7h2.46v.92h-2.46v1.7h2.7v.94h-3.7v-6.2zm.2.2v5.8h3.3v-.54h-2.7v-2.1h2.46v-.52h-2.46v-2.1h2.7v-.54h-3.3zm4.13-.2h4.37v.94h-1.72v5.26h-.97v-5.26h-1.68v-.94zm.2.2v.54h1.68v5.26h.57v-5.26h1.72v-.54h-3.97zm6.91-.2h.97v6.2h-.97v-6.2zm.2.2v5.8h.57v-5.8h-.57zm1.54-.2h4.32v.94h-1.67v5.26h-.97v-5.26h-1.68v-.94zm.2.2v.54h1.68v5.26h.57v-5.26h1.67v-.54h-3.92zm13.7-.2h1.095l2.764 4.422V6.963h.97v6.2h-.955l-2.895-4.641v4.64h-.98v-6.2zm.2.2v5.8h.58V7.824l3.205 5.14h.644v-5.8h-.57v4.918l-3.075-4.918h-.784zm-5.971 1.11c.452-.45 1.063-.703 1.7-.703.638 0 1.25.253 1.701.703l.004.003c.444.49.69 1.127.69 1.787 0 .661-.246 1.298-.69 1.788l-.004.003c-.451.45-1.063.703-1.7.703-.638 0-1.25-.253-1.701-.703l.07-.07-.073.067c-.445-.49-.69-1.127-.69-1.787 0-.661.245-1.298.69-1.788l.003-.003zm.143 3.441c.414.412.974.643 1.557.643.584 0 1.144-.231 1.558-.643.41-.452.636-1.04.636-1.65 0-.61-.226-1.2-.636-1.651-.414-.412-.974-.643-1.558-.643-.583 0-1.143.231-1.557.643-.41.452-.636 1.04-.636 1.65 0 .61.227 1.2.636 1.651z" transform="translate(-377 -1058) translate(165 920.317) translate(65 84.683) translate(147 53)"/>
                        <path fill-rule="nonzero" d="M10.495 32.698l12.25-12.706L10.506 7.31c-.326.197-.529.654-.529 1.253v22.895c.005.599.2 1.023.52 1.241zM23.185 19.641l3.649-3.785-14.86-8.452c-.25-.15-.535-.23-.824-.23L23.183 19.64l.002.001zM23.185 20.345l-12.072 12.52c.303.006.601-.076.862-.236l14.89-8.475-3.68-3.81zM32.217 18.923l-4.945-2.818-3.749 3.889 3.777 3.913 4.916-2.81c1.045-.598 1.045-1.58.001-2.174z" transform="translate(-377 -1058) translate(165 920.317) translate(65 84.683) translate(147 53)"/>
                    </g>
                </g>
            </g>
        </g>
    </g>
</svg>
